<mxfile host="app.diagrams.net" modified="2021-06-21T13:58:20.574Z" agent="5.0 (Windows NT 10.0; Win64; x64) AppleWebKit/537.36 (KHTML, like Gecko) Chrome/91.0.4472.106 Safari/537.36" etag="_EWgIwaRgMLzsJTEtggJ" version="14.7.10" type="github">
  <diagram id="QWmPcWTleGatWilCuJVK" name="Page-1">
    <mxGraphModel dx="2062" dy="1066" grid="1" gridSize="10" guides="1" tooltips="1" connect="1" arrows="1" fold="1" page="1" pageScale="1" pageWidth="2339" pageHeight="3300" math="0" shadow="0">
      <root>
        <mxCell id="0" />
        <mxCell id="1" parent="0" />
        <mxCell id="EtGpCTok_ZsKIdkG2lzh-6" value="client" style="shape=umlLifeline;perimeter=lifelinePerimeter;whiteSpace=wrap;html=1;container=1;collapsible=0;recursiveResize=0;outlineConnect=0;" parent="1" vertex="1">
          <mxGeometry x="30" y="40" width="100" height="1760" as="geometry" />
        </mxCell>
        <mxCell id="EtGpCTok_ZsKIdkG2lzh-7" value="rpc-api" style="shape=umlLifeline;perimeter=lifelinePerimeter;whiteSpace=wrap;html=1;container=1;collapsible=0;recursiveResize=0;outlineConnect=0;" parent="1" vertex="1">
          <mxGeometry x="220" y="40" width="100" height="1760" as="geometry" />
        </mxCell>
        <mxCell id="EtGpCTok_ZsKIdkG2lzh-8" value="cmcc" style="shape=umlLifeline;perimeter=lifelinePerimeter;whiteSpace=wrap;html=1;container=1;collapsible=0;recursiveResize=0;outlineConnect=0;" parent="1" vertex="1">
          <mxGeometry x="420" y="40" width="100" height="1760" as="geometry" />
        </mxCell>
        <mxCell id="EtGpCTok_ZsKIdkG2lzh-86" value="" style="html=1;points=[];perimeter=orthogonalPerimeter;" parent="EtGpCTok_ZsKIdkG2lzh-8" vertex="1">
          <mxGeometry x="-155" y="640" width="10" height="80" as="geometry" />
        </mxCell>
        <mxCell id="EtGpCTok_ZsKIdkG2lzh-87" value="" style="html=1;points=[];perimeter=orthogonalPerimeter;" parent="EtGpCTok_ZsKIdkG2lzh-8" vertex="1">
          <mxGeometry x="44" y="640" width="10" height="80" as="geometry" />
        </mxCell>
        <mxCell id="EtGpCTok_ZsKIdkG2lzh-88" value="get sigkey by appid" style="html=1;verticalAlign=bottom;endArrow=block;entryX=0;entryY=0;" parent="EtGpCTok_ZsKIdkG2lzh-8" target="EtGpCTok_ZsKIdkG2lzh-87" edge="1">
          <mxGeometry relative="1" as="geometry">
            <mxPoint x="-150.07142857142867" y="640" as="sourcePoint" />
          </mxGeometry>
        </mxCell>
        <mxCell id="EtGpCTok_ZsKIdkG2lzh-89" value="return" style="html=1;verticalAlign=bottom;endArrow=open;dashed=1;endSize=8;exitX=0;exitY=0.95;" parent="EtGpCTok_ZsKIdkG2lzh-8" edge="1">
          <mxGeometry relative="1" as="geometry">
            <mxPoint x="-143" y="716" as="targetPoint" />
            <mxPoint x="37" y="716" as="sourcePoint" />
          </mxGeometry>
        </mxCell>
        <mxCell id="EtGpCTok_ZsKIdkG2lzh-91" value="check sign" style="edgeStyle=orthogonalEdgeStyle;html=1;align=left;spacingLeft=2;endArrow=block;rounded=0;entryX=1;entryY=0;" parent="EtGpCTok_ZsKIdkG2lzh-8" edge="1">
          <mxGeometry relative="1" as="geometry">
            <mxPoint x="-150" y="760" as="sourcePoint" />
            <Array as="points">
              <mxPoint x="-120" y="760" />
            </Array>
            <mxPoint x="-145" y="780" as="targetPoint" />
          </mxGeometry>
        </mxCell>
        <mxCell id="EtGpCTok_ZsKIdkG2lzh-92" value="" style="html=1;points=[];perimeter=orthogonalPerimeter;" parent="EtGpCTok_ZsKIdkG2lzh-8" vertex="1">
          <mxGeometry x="-155" y="880" width="10" height="250" as="geometry" />
        </mxCell>
        <mxCell id="EtGpCTok_ZsKIdkG2lzh-93" value="" style="html=1;points=[];perimeter=orthogonalPerimeter;" parent="EtGpCTok_ZsKIdkG2lzh-8" vertex="1">
          <mxGeometry x="44" y="880" width="10" height="80" as="geometry" />
        </mxCell>
        <mxCell id="EtGpCTok_ZsKIdkG2lzh-94" value="sync notice data" style="html=1;verticalAlign=bottom;endArrow=block;entryX=0;entryY=0;" parent="EtGpCTok_ZsKIdkG2lzh-8" target="EtGpCTok_ZsKIdkG2lzh-93" edge="1">
          <mxGeometry relative="1" as="geometry">
            <mxPoint x="-150.07142857142867" y="880" as="sourcePoint" />
          </mxGeometry>
        </mxCell>
        <mxCell id="EtGpCTok_ZsKIdkG2lzh-95" value="return" style="html=1;verticalAlign=bottom;endArrow=open;dashed=1;endSize=8;exitX=0;exitY=0.95;" parent="EtGpCTok_ZsKIdkG2lzh-8" edge="1">
          <mxGeometry relative="1" as="geometry">
            <mxPoint x="-143.00000000000023" y="956" as="targetPoint" />
            <mxPoint x="36.99999999999977" y="956" as="sourcePoint" />
          </mxGeometry>
        </mxCell>
        <mxCell id="EtGpCTok_ZsKIdkG2lzh-97" value="" style="html=1;points=[];perimeter=orthogonalPerimeter;" parent="EtGpCTok_ZsKIdkG2lzh-8" vertex="1">
          <mxGeometry x="44" y="1050" width="10" height="80" as="geometry" />
        </mxCell>
        <mxCell id="EtGpCTok_ZsKIdkG2lzh-98" value="update&amp;nbsp;app_sequence version&amp;nbsp;" style="html=1;verticalAlign=bottom;endArrow=block;entryX=0;entryY=0;" parent="EtGpCTok_ZsKIdkG2lzh-8" target="EtGpCTok_ZsKIdkG2lzh-97" edge="1">
          <mxGeometry relative="1" as="geometry">
            <mxPoint x="-150.07142857142867" y="1050" as="sourcePoint" />
          </mxGeometry>
        </mxCell>
        <mxCell id="EtGpCTok_ZsKIdkG2lzh-99" value="return" style="html=1;verticalAlign=bottom;endArrow=open;dashed=1;endSize=8;exitX=0;exitY=0.95;" parent="EtGpCTok_ZsKIdkG2lzh-8" edge="1">
          <mxGeometry relative="1" as="geometry">
            <mxPoint x="-143.00000000000023" y="1126" as="targetPoint" />
            <mxPoint x="36.99999999999977" y="1126" as="sourcePoint" />
          </mxGeometry>
        </mxCell>
        <object label="Request" id="EtGpCTok_ZsKIdkG2lzh-14">
          <mxCell style="html=1;verticalAlign=bottom;startArrow=circle;startFill=1;endArrow=open;startSize=6;endSize=8;" parent="1" target="EtGpCTok_ZsKIdkG2lzh-7" edge="1">
            <mxGeometry width="80" relative="1" as="geometry">
              <mxPoint x="85" y="160" as="sourcePoint" />
              <mxPoint x="265" y="160" as="targetPoint" />
              <Array as="points">
                <mxPoint x="115" y="160" />
              </Array>
            </mxGeometry>
          </mxCell>
        </object>
        <mxCell id="EtGpCTok_ZsKIdkG2lzh-17" value="path:v1.0/notice/sync" style="text;html=1;align=center;verticalAlign=middle;resizable=0;points=[];autosize=1;strokeColor=none;" parent="1" vertex="1">
          <mxGeometry x="110" y="160" width="130" height="20" as="geometry" />
        </mxCell>
        <mxCell id="EtGpCTok_ZsKIdkG2lzh-18" value="appid" style="text;html=1;align=center;verticalAlign=middle;resizable=0;points=[];autosize=1;strokeColor=none;" parent="1" vertex="1">
          <mxGeometry x="150" y="180" width="40" height="20" as="geometry" />
        </mxCell>
        <mxCell id="EtGpCTok_ZsKIdkG2lzh-19" value="sign" style="text;html=1;align=center;verticalAlign=middle;resizable=0;points=[];autosize=1;strokeColor=none;" parent="1" vertex="1">
          <mxGeometry x="150" y="200" width="40" height="20" as="geometry" />
        </mxCell>
        <mxCell id="EtGpCTok_ZsKIdkG2lzh-21" value="" style="html=1;points=[];perimeter=orthogonalPerimeter;" parent="1" vertex="1">
          <mxGeometry x="75" y="120" width="10" height="80" as="geometry" />
        </mxCell>
        <mxCell id="EtGpCTok_ZsKIdkG2lzh-40" value="post_data" style="text;html=1;align=center;verticalAlign=middle;resizable=0;points=[];autosize=1;strokeColor=none;" parent="1" vertex="1">
          <mxGeometry x="135" y="220" width="70" height="20" as="geometry" />
        </mxCell>
        <mxCell id="EtGpCTok_ZsKIdkG2lzh-41" value="get_data" style="text;html=1;align=center;verticalAlign=middle;resizable=0;points=[];autosize=1;strokeColor=none;" parent="1" vertex="1">
          <mxGeometry x="140" y="240" width="60" height="20" as="geometry" />
        </mxCell>
        <mxCell id="EtGpCTok_ZsKIdkG2lzh-42" value="" style="html=1;points=[];perimeter=orthogonalPerimeter;" parent="1" vertex="1">
          <mxGeometry x="265" y="280" width="10" height="560" as="geometry" />
        </mxCell>
        <mxCell id="EtGpCTok_ZsKIdkG2lzh-45" value="" style="html=1;points=[];perimeter=orthogonalPerimeter;" parent="1" vertex="1">
          <mxGeometry x="464" y="280" width="10" height="80" as="geometry" />
        </mxCell>
        <mxCell id="EtGpCTok_ZsKIdkG2lzh-46" value="get white ip by appid" style="html=1;verticalAlign=bottom;endArrow=block;entryX=0;entryY=0;" parent="1" source="EtGpCTok_ZsKIdkG2lzh-7" target="EtGpCTok_ZsKIdkG2lzh-45" edge="1">
          <mxGeometry relative="1" as="geometry">
            <mxPoint x="390" y="280" as="sourcePoint" />
          </mxGeometry>
        </mxCell>
        <mxCell id="EtGpCTok_ZsKIdkG2lzh-47" value="return" style="html=1;verticalAlign=bottom;endArrow=open;dashed=1;endSize=8;exitX=0;exitY=0.95;" parent="1" edge="1">
          <mxGeometry relative="1" as="geometry">
            <mxPoint x="277" y="356" as="targetPoint" />
            <mxPoint x="457" y="356" as="sourcePoint" />
          </mxGeometry>
        </mxCell>
        <mxCell id="EtGpCTok_ZsKIdkG2lzh-64" value="agent" style="shape=umlLifeline;perimeter=lifelinePerimeter;whiteSpace=wrap;html=1;container=1;collapsible=0;recursiveResize=0;outlineConnect=0;" parent="1" vertex="1">
          <mxGeometry x="620" y="40" width="100" height="1760" as="geometry" />
        </mxCell>
        <mxCell id="EtGpCTok_ZsKIdkG2lzh-65" value="redis" style="shape=umlLifeline;perimeter=lifelinePerimeter;whiteSpace=wrap;html=1;container=1;collapsible=0;recursiveResize=0;outlineConnect=0;" parent="1" vertex="1">
          <mxGeometry x="820" y="40" width="100" height="1760" as="geometry" />
        </mxCell>
        <mxCell id="EtGpCTok_ZsKIdkG2lzh-67" value="&lt;div&gt;&lt;span style=&quot;font-size: 11px&quot;&gt;Check whether it is a white ip&lt;/span&gt;&lt;/div&gt;" style="edgeStyle=orthogonalEdgeStyle;html=1;align=left;spacingLeft=2;endArrow=block;rounded=0;entryX=1;entryY=0;" parent="1" edge="1">
          <mxGeometry relative="1" as="geometry">
            <mxPoint x="270" y="400" as="sourcePoint" />
            <Array as="points">
              <mxPoint x="300" y="400" />
            </Array>
            <mxPoint x="275" y="420" as="targetPoint" />
          </mxGeometry>
        </mxCell>
        <mxCell id="EtGpCTok_ZsKIdkG2lzh-81" value="" style="html=1;points=[];perimeter=orthogonalPerimeter;" parent="1" vertex="1">
          <mxGeometry x="464" y="480" width="10" height="80" as="geometry" />
        </mxCell>
        <mxCell id="EtGpCTok_ZsKIdkG2lzh-82" value="get permissions by appid" style="html=1;verticalAlign=bottom;endArrow=block;entryX=0;entryY=0;" parent="1" target="EtGpCTok_ZsKIdkG2lzh-81" edge="1">
          <mxGeometry relative="1" as="geometry">
            <mxPoint x="269.92857142857133" y="480" as="sourcePoint" />
          </mxGeometry>
        </mxCell>
        <mxCell id="EtGpCTok_ZsKIdkG2lzh-83" value="return" style="html=1;verticalAlign=bottom;endArrow=open;dashed=1;endSize=8;exitX=0;exitY=0.95;" parent="1" edge="1">
          <mxGeometry relative="1" as="geometry">
            <mxPoint x="277" y="556" as="targetPoint" />
            <mxPoint x="457" y="556" as="sourcePoint" />
          </mxGeometry>
        </mxCell>
        <mxCell id="EtGpCTok_ZsKIdkG2lzh-85" value="check appid has permission" style="edgeStyle=orthogonalEdgeStyle;html=1;align=left;spacingLeft=2;endArrow=block;rounded=0;entryX=1;entryY=0;" parent="1" edge="1">
          <mxGeometry relative="1" as="geometry">
            <mxPoint x="275" y="590" as="sourcePoint" />
            <Array as="points">
              <mxPoint x="305" y="590" />
            </Array>
            <mxPoint x="280" y="610" as="targetPoint" />
          </mxGeometry>
        </mxCell>
        <mxCell id="EtGpCTok_ZsKIdkG2lzh-101" value="success" style="html=1;verticalAlign=bottom;endArrow=open;dashed=1;endSize=8;" parent="1" target="EtGpCTok_ZsKIdkG2lzh-6" edge="1">
          <mxGeometry relative="1" as="geometry">
            <mxPoint x="270" y="1200" as="sourcePoint" />
            <mxPoint x="100" y="1200" as="targetPoint" />
          </mxGeometry>
        </mxCell>
        <mxCell id="859x5mInUK7gyhsxJweJ-9" value="" style="html=1;points=[];perimeter=orthogonalPerimeter;" vertex="1" parent="1">
          <mxGeometry x="464" y="1280" width="10" height="60" as="geometry" />
        </mxCell>
        <mxCell id="859x5mInUK7gyhsxJweJ-10" value="check app_seq has update" style="html=1;verticalAlign=bottom;endArrow=block;entryX=1;entryY=0;" edge="1" target="859x5mInUK7gyhsxJweJ-9" parent="1">
          <mxGeometry relative="1" as="geometry">
            <mxPoint x="670" y="1280" as="sourcePoint" />
          </mxGeometry>
        </mxCell>
        <mxCell id="859x5mInUK7gyhsxJweJ-11" value="return" style="html=1;verticalAlign=bottom;endArrow=open;dashed=1;endSize=8;exitX=1;exitY=0.95;" edge="1" parent="1">
          <mxGeometry relative="1" as="geometry">
            <mxPoint x="663" y="1337" as="targetPoint" />
            <mxPoint x="477" y="1337" as="sourcePoint" />
          </mxGeometry>
        </mxCell>
        <mxCell id="859x5mInUK7gyhsxJweJ-12" value="" style="html=1;points=[];perimeter=orthogonalPerimeter;" vertex="1" parent="1">
          <mxGeometry x="665" y="1260" width="10" height="350" as="geometry" />
        </mxCell>
        <mxCell id="859x5mInUK7gyhsxJweJ-13" value="" style="html=1;points=[];perimeter=orthogonalPerimeter;" vertex="1" parent="1">
          <mxGeometry x="464" y="1400" width="10" height="60" as="geometry" />
        </mxCell>
        <mxCell id="859x5mInUK7gyhsxJweJ-14" value="get content data" style="html=1;verticalAlign=bottom;endArrow=block;entryX=1;entryY=0;" edge="1" target="859x5mInUK7gyhsxJweJ-13" parent="1">
          <mxGeometry relative="1" as="geometry">
            <mxPoint x="670" y="1400" as="sourcePoint" />
          </mxGeometry>
        </mxCell>
        <mxCell id="859x5mInUK7gyhsxJweJ-15" value="return" style="html=1;verticalAlign=bottom;endArrow=open;dashed=1;endSize=8;exitX=1;exitY=0.95;" edge="1" source="859x5mInUK7gyhsxJweJ-13" parent="1" target="EtGpCTok_ZsKIdkG2lzh-64">
          <mxGeometry relative="1" as="geometry">
            <mxPoint x="534" y="1457" as="targetPoint" />
          </mxGeometry>
        </mxCell>
        <mxCell id="859x5mInUK7gyhsxJweJ-16" value="" style="html=1;points=[];perimeter=orthogonalPerimeter;" vertex="1" parent="1">
          <mxGeometry x="865" y="1500" width="10" height="90" as="geometry" />
        </mxCell>
        <mxCell id="859x5mInUK7gyhsxJweJ-18" value="sync content data" style="html=1;verticalAlign=bottom;endArrow=block;entryX=0.033;entryY=0.473;entryDx=0;entryDy=0;entryPerimeter=0;" edge="1" parent="1" target="859x5mInUK7gyhsxJweJ-16">
          <mxGeometry width="80" relative="1" as="geometry">
            <mxPoint x="675" y="1539.58" as="sourcePoint" />
            <mxPoint x="755" y="1539.58" as="targetPoint" />
          </mxGeometry>
        </mxCell>
        <mxCell id="859x5mInUK7gyhsxJweJ-19" value=":Object" style="shape=umlLifeline;perimeter=lifelinePerimeter;whiteSpace=wrap;html=1;container=1;collapsible=0;recursiveResize=0;outlineConnect=0;" vertex="1" parent="1">
          <mxGeometry x="1030" y="40" width="100" height="1770" as="geometry" />
        </mxCell>
        <mxCell id="859x5mInUK7gyhsxJweJ-21" value="" style="html=1;points=[];perimeter=orthogonalPerimeter;" vertex="1" parent="1">
          <mxGeometry x="865" y="1680" width="10" height="60" as="geometry" />
        </mxCell>
        <mxCell id="859x5mInUK7gyhsxJweJ-22" value="get notice data" style="html=1;verticalAlign=bottom;endArrow=block;entryX=1;entryY=0;exitX=0.2;exitY=0.263;exitDx=0;exitDy=0;exitPerimeter=0;" edge="1" target="859x5mInUK7gyhsxJweJ-21" parent="1" source="859x5mInUK7gyhsxJweJ-24">
          <mxGeometry relative="1" as="geometry">
            <mxPoint x="935" y="1680" as="sourcePoint" />
          </mxGeometry>
        </mxCell>
        <mxCell id="859x5mInUK7gyhsxJweJ-23" value="return" style="html=1;verticalAlign=bottom;endArrow=open;dashed=1;endSize=8;exitX=1;exitY=0.95;" edge="1" source="859x5mInUK7gyhsxJweJ-21" parent="1">
          <mxGeometry relative="1" as="geometry">
            <mxPoint x="1070" y="1737" as="targetPoint" />
          </mxGeometry>
        </mxCell>
        <mxCell id="859x5mInUK7gyhsxJweJ-24" value="" style="html=1;points=[];perimeter=orthogonalPerimeter;" vertex="1" parent="1">
          <mxGeometry x="1075" y="1660" width="10" height="80" as="geometry" />
        </mxCell>
      </root>
    </mxGraphModel>
  </diagram>
</mxfile>
